PathFileType	4	(X/Y/Z)	OpenSim_Sub03_CSStiffKnee_Gyro.trc
DataRate	CameraRate	NumFrames	NumMarkers	Units	OrigDataRate	OrigDataStartFrame	OrigNumFrames
100	100	30	8	m	100	1819	3637
Frame#	Time	torso_imu_offset_imu	pelvis_imu_offset_imu	tibia_r_imu_offset_imu	femur_r_imu_offset_imu	tibia_l_imu_offset_imu	femur_l_imu_offset_imu	toes_r_imu_offset_imu	toes_l_imu_offset_imu
				X1	Y1	Z1	X2	Y2	Z2	X3	Y3	Z3	X4	Y4	Z4	X5	Y5	Z5	X6	Y6	Z6	X7	Y7	Z7	X8		Y8	Z8	

1819	18.18000000	0.87021100	-0.25665000	0.08995600	0.45931600	0.16406200	-0.15116800	-0.59577500	-0.16449200	-0.11793200	-0.42390700	-0.16388300	-1.16582400	0.34281900	-0.08774000	-2.53104000	-0.10267200	0.15329900	-1.64213300	0.00438000	-0.03142800	-0.07259100	0.61325000	2.23680600	-0.43711200
1820	18.19000000	0.90470500	-0.25138600	0.09319400	0.33798400	0.12293800	-0.20441400	-0.54151800	-0.15508300	-0.14519400	-0.47406400	-0.16267900	-1.12883900	0.27246000	-0.08780600	-2.55402100	-0.26586700	0.10762000	-1.61903100	0.02048900	-0.02133600	-0.10039600	0.58865600	2.24072200	-0.44673500
1821	18.20000000	0.89986300	-0.24117400	0.09139700	0.22723600	0.08138400	-0.21455100	-0.58354000	-0.17639200	-0.15015100	-0.44396200	-0.12097300	-1.07752200	0.24760400	-0.06196800	-2.57077800	-0.48682400	0.05177600	-1.59557100	0.02597400	-0.01944700	-0.11262500	0.53964900	2.23260600	-0.47788800
1822	18.21000000	0.88150900	-0.21930600	0.06590400	0.13177800	0.06505000	-0.25598900	-0.60511000	-0.17196600	-0.21405700	-0.43188300	-0.12216300	-1.00708900	0.22255700	-0.03427500	-2.62035800	-0.70929600	0.07081300	-1.55407400	0.03223900	-0.03197700	-0.12099100	0.50394200	2.26512900	-0.53070300
1823	18.22000000	0.87040500	-0.18051700	0.02922300	0.06062600	0.06829900	-0.23206000	-0.59224200	-0.16830300	-0.25890400	-0.46512300	-0.08778200	-0.97951600	0.14591100	-0.00918200	-2.67775500	-0.92625300	0.08266000	-1.50107800	0.03348600	-0.01931600	-0.11704800	0.45017000	2.25622600	-0.58326300
1824	18.23000000	0.85658900	-0.13826600	0.01403400	-0.02373200	0.03337200	-0.28817300	-0.52467700	-0.17811700	-0.32114900	-0.52183200	-0.05594900	-0.96238500	0.06092900	0.01822700	-2.72185500	-1.12928600	0.09697100	-1.42683400	0.02272300	-0.00882200	-0.11863500	0.34595900	2.17436700	-0.61097900
1825	18.24000000	0.84190500	-0.10014200	-0.01141100	-0.10219700	0.00302000	-0.32769900	-0.49722900	-0.16816200	-0.36119000	-0.58393800	-0.09707600	-0.92299000	-0.07721900	0.05951900	-2.76907200	-1.23082400	0.06196400	-1.32803200	0.02375300	-0.00852100	-0.12615100	0.21160600	2.08497300	-0.66131200
1826	18.25000000	0.81460400	-0.05114500	-0.03893900	-0.12753900	-0.00261000	-0.27152100	-0.46146500	-0.17756400	-0.37309700	-0.63257800	-0.11883800	-0.84362500	-0.25328200	0.08937900	-2.83711100	-1.26655000	0.00306400	-1.21302000	0.05082000	-0.02537800	-0.15256500	0.07982400	2.00799600	-0.70495000
1827	18.26000000	0.78657900	-0.01092500	-0.06039100	-0.20571700	-0.02448800	-0.31920300	-0.48427600	-0.18946100	-0.37698700	-0.68242800	-0.11020100	-0.81428100	-0.43387300	0.11999600	-2.90589400	-1.24545200	-0.01085300	-1.09440400	0.06550100	-0.01829500	-0.17538400	0.05495600	1.92494100	-0.83094800
1828	18.27000000	0.73413000	0.02992700	-0.08230900	-0.28263700	-0.07380400	-0.31324000	-0.57179100	-0.17833600	-0.38565600	-0.68762300	-0.11421500	-0.83526600	-0.53513300	0.15900500	-2.93308800	-1.24003200	0.00005800	-0.99239800	0.08677200	-0.02160300	-0.21318900	0.16805000	1.96437500	-1.02130100
1829	18.28000000	0.67909000	0.08065100	-0.10027500	-0.31357700	-0.10944600	-0.28024100	-0.71756600	-0.17559600	-0.37155700	-0.72127200	-0.12759000	-0.88856000	-0.53685300	0.18765100	-2.89868100	-1.25971600	0.03324600	-0.88486100	0.10250300	-0.02729700	-0.25338300	0.26207700	1.92465100	-1.20770700
1830	18.29000000	0.62607600	0.12087500	-0.11243500	-0.31450800	-0.12276100	-0.16371900	-0.83427700	-0.16940300	-0.40486100	-0.81813100	-0.14533200	-0.93892900	-0.54498200	0.17144300	-2.87298700	-1.23239000	0.08818100	-0.78570500	0.09209800	-0.02792600	-0.26602400	0.34180600	1.95783500	-1.41441000
1831	18.30000000	0.54121400	0.16431700	-0.14601100	-0.32501000	-0.14612200	-0.17952700	-0.86750800	-0.15588700	-0.44632100	-0.89307500	-0.12894000	-0.93841700	-0.55263100	0.14254300	-2.84746900	-1.21304300	0.08879700	-0.71672200	0.07813400	-0.02553700	-0.26182700	0.34927600	2.10564600	-1.54743800
1832	18.31000000	0.46128500	0.20765900	-0.18218800	-0.35222900	-0.18605900	-0.16889900	-0.76931900	-0.15298800	-0.49542300	-0.97155500	-0.08940100	-0.94954600	-0.49731100	0.13767700	-2.71454800	-1.13003400	0.03829700	-0.63500200	0.05139600	-0.03506400	-0.24434600	0.30553100	2.07201200	-1.52877400
1833	18.32000000	0.38335900	0.22981400	-0.19678600	-0.34065500	-0.21428600	-0.16130000	-0.65821200	-0.11923400	-0.52899300	-0.96211600	-0.04373000	-0.97780400	-0.38194700	0.13756000	-2.60645900	-0.87222100	-0.01459600	-0.54930400	0.05535500	-0.05963200	-0.23033200	0.40106500	1.87045800	-1.40791600
1834	18.33000000	0.32935400	0.25407400	-0.20632100	-0.34804600	-0.24723100	-0.15976100	-0.53263800	-0.10576200	-0.60615600	-0.85284400	0.00662500	-0.96982100	-0.20507000	0.08112900	-2.50091400	-0.54049600	-0.03095300	-0.49950200	0.02451200	-0.07679500	-0.19580900	0.54614500	1.82157800	-1.22049300
1835	18.34000000	0.24930200	0.27909600	-0.23037300	-0.35879900	-0.29039500	-0.15176200	-0.50560800	-0.11533700	-0.68596900	-0.70197600	0.06186600	-0.93193700	0.04437900	0.02792700	-2.25363400	-0.25640100	-0.02095300	-0.47687300	0.01888800	-0.11891900	-0.19868100	0.56150600	1.82257700	-0.94751100
1836	18.35000000	0.18898200	0.29101700	-0.23159800	-0.35271500	-0.32442200	-0.13665700	-0.51823400	-0.17683300	-0.78173500	-0.51509500	0.12337800	-0.86910500	0.26825600	-0.01871700	-1.89811000	-0.13297700	-0.10454000	-0.45588000	0.01541700	-0.13935300	-0.21497300	0.59210600	1.62579800	-0.62505500
1837	18.36000000	0.12390900	0.30762200	-0.24164500	-0.33967400	-0.35315600	-0.11617100	-0.57827600	-0.21440100	-0.88869600	-0.32416500	0.17902500	-0.81174300	0.47474500	-0.08065500	-1.59053900	-0.08539600	-0.22920300	-0.43907900	0.00512500	-0.15973300	-0.24500400	0.61641500	1.37016200	-0.33174400
1838	18.37000000	0.07310900	0.34418100	-0.26759900	-0.33848400	-0.39225000	-0.08741800	-0.58531800	-0.25196800	-0.99470900	-0.23912000	0.22064900	-0.74693900	0.53018200	-0.08987200	-1.25527100	-0.01560100	-0.25777400	-0.41011400	0.02872400	-0.19431500	-0.29022900	0.57535600	1.13465600	-0.09864100
1839	18.38000000	0.01166800	0.37621500	-0.26251200	-0.34674200	-0.41877800	-0.05100500	-0.51779100	-0.27662700	-1.11398300	-0.23862000	0.25348000	-0.63543400	0.47431200	-0.10512800	-0.83660500	0.07528800	-0.21770500	-0.38723000	0.06581600	-0.25143800	-0.32783700	0.50015300	0.80667700	0.03237000
1840	18.39000000	-0.05863600	0.39513700	-0.26989500	-0.37184600	-0.44355700	-0.02989000	-0.35868400	-0.28718000	-1.25310800	-0.20360800	0.31285700	-0.42639900	0.41646100	-0.13896500	-0.46068400	0.18174700	-0.13755800	-0.37622000	0.07101900	-0.29291400	-0.34119900	0.35153700	0.48058100	0.04926600
1841	18.40000000	-0.13009900	0.41632900	-0.27393300	-0.42141800	-0.47444400	-0.00538900	-0.25125300	-0.30164500	-1.38637300	-0.26025100	0.38208600	-0.26951200	0.21975400	-0.14398100	-0.13154800	0.25480000	-0.13098100	-0.33248700	0.05673400	-0.36769500	-0.35628600	0.12874000	0.16066000	-0.03248400
1842	18.41000000	-0.18811500	0.43435900	-0.27558900	-0.47951700	-0.51039200	0.00805800	-0.18700000	-0.31381200	-1.53103100	-0.35552200	0.49354400	-0.09287600	-0.09931800	-0.12595100	0.13492200	0.24051600	-0.17489800	-0.22032900	0.03894400	-0.46977900	-0.39490200	-0.06497500	-0.18781900	-0.18273500
1843	18.42000000	-0.24357500	0.46283600	-0.27726500	-0.53077700	-0.55048200	0.03154900	-0.23149300	-0.35986500	-1.66792800	-0.45503800	0.57706200	0.03926100	-0.42128400	-0.11068400	0.34282000	0.10279200	-0.23538200	-0.06891000	0.01534200	-0.59930600	-0.44330400	-0.23397600	-0.47807800	-0.37240800
1844	18.43000000	-0.31071200	0.50198000	-0.27954100	-0.60668400	-0.59709600	0.06563600	-0.27117900	-0.39158400	-1.78074900	-0.48671700	0.63114800	0.19309100	-0.70465100	-0.11134500	0.51418500	-0.03885700	-0.24039700	0.09214000	-0.03326900	-0.75525700	-0.50982400	-0.52542800	-0.68354200	-0.52503500
1845	18.44000000	-0.39406300	0.55860900	-0.27378400	-0.68105700	-0.62194200	0.10024300	-0.37683900	-0.51942300	-1.94754200	-0.57958700	0.66027700	0.38042200	-0.97118300	-0.14692600	0.65091000	-0.10930700	-0.26652500	0.26113000	0.01988900	-0.98719000	-0.59854900	-0.50922500	-2.02468400	-0.42365400
1846	18.45000000	-0.48503300	0.61350300	-0.27602700	-0.73788200	-0.64876100	0.14242500	-0.52733900	-0.58350500	-2.07939600	-0.73380500	0.66535100	0.55525000	-1.15911100	-0.22317600	0.85156700	-0.15668200	-0.23580400	0.43483700	0.03025300	-1.21969400	-0.70547700	-0.22689700	-3.03378200	-0.16786000
1847	18.46000000	-0.59179300	0.64899400	-0.27469400	-0.75023000	-0.64340900	0.17337400	-0.59228900	-0.66637800	-2.21805700	-0.91385800	0.66773600	0.71416400	-1.52948200	-0.24988400	1.24490400	-0.18492300	-0.18077600	0.56453600	-0.09228800	-1.53645200	-0.79442200	0.72290200	-3.38038200	0.30759400
1848	18.47000000	-0.68877700	0.68215700	-0.27748200	-0.70598200	-0.59889800	0.17968000	-0.64678200	-0.73033000	-2.32235800	-1.00988700	0.65988500	0.86548100	-1.41215900	-0.76290000	1.44713400	-0.09284100	-0.18461400	0.66479600	0.00146000	-2.05460000	-0.92672700	-0.20369600	-2.69002900	0.87591800
